<svg width="20" height="20" viewBox="0 0 20 20" fill="none" xmlns="http://www.w3.org/2000/svg">
<path d="M10 -5.55121e-08C4.47697 -5.55121e-08 0 4.51105 0 10.0761C0 15.0486 3.57522 19.1764 8.27516 20V19.9654H8.27568V12.856H5.86216V10.0756H8.27568V7.85628C8.27568 5.33095 9.93019 3.82237 12.215 3.82237C13.309 3.82237 14.4827 4.00346 14.4827 4.00346V6.60175H13.1918C11.9499 6.60175 11.7243 7.38964 11.7243 8.18645V10.0756H14.4827L14.0003 12.856H11.7243V19.9654V20C16.4248 19.1764 20 15.0486 20 10.0761C20 4.51105 15.523 -5.55121e-08 10 -5.55121e-08Z" fill="white"/>
</svg>
