<svg width="20" height="20" viewBox="0 0 20 20" fill="none" xmlns="http://www.w3.org/2000/svg">
<path d="M19.8054 8.0414H18.9999V7.9999H9.99996V11.9998H15.6514C14.8269 14.3283 12.6114 15.9998 9.99996 15.9998C6.68647 15.9998 3.99998 13.3133 3.99998 9.99987C3.99998 6.68641 6.68647 3.99995 9.99996 3.99995C11.5294 3.99995 12.9209 4.57694 13.9804 5.51943L16.8089 2.69096C15.0229 1.02649 12.6339 0 9.99996 0C4.47748 0 0 4.47744 0 9.99987C0 15.5223 4.47748 19.9997 9.99996 19.9997C15.5224 19.9997 19.9999 15.5223 19.9999 9.99987C19.9999 9.32938 19.9309 8.67489 19.8054 8.0414Z" fill="#FFC107"/>
<path d="M1.15301 5.34543L4.43849 7.7549C5.32749 5.55393 7.48047 3.99995 9.99996 3.99995C11.5294 3.99995 12.9209 4.57694 13.9804 5.51943L16.8089 2.69096C15.0229 1.02649 12.6339 0 9.99996 0C6.15897 0 2.828 2.16847 1.15301 5.34543Z" fill="#FF3D00"/>
<path d="M9.99996 19.9997C12.5829 19.9997 14.93 19.0114 16.7045 17.404L13.6095 14.785C12.5717 15.5742 11.3037 16.0008 9.99996 15.9998C7.39897 15.9998 5.1905 14.3415 4.35851 12.027L1.09752 14.5395C2.75252 17.778 6.11347 19.9997 9.99996 19.9997Z" fill="#4CAF50"/>
<path d="M19.8054 8.0414H18.9999V7.9999H9.99996V11.9998H15.6514C15.257 13.108 14.5467 14.0766 13.608 14.7855L13.6095 14.785L16.7045 17.404C16.4855 17.603 19.9999 14.9998 19.9999 9.99987C19.9999 9.32938 19.9309 8.67489 19.8054 8.0414Z" fill="#1976D2"/>
</svg>
