<svg width="16" height="20" viewBox="0 0 16 20" fill="none" xmlns="http://www.w3.org/2000/svg">
<path fill-rule="evenodd" clip-rule="evenodd" d="M0.754237 1.96604C0.318818 2.12326 0.0316568 2.5247 0.0251566 2.97753C0.0055533 4.34319 -0.0252865 7.25257 0.0371477 8.91795C0.300197 15.9345 6.43008 19.297 7.76391 19.9469C7.92559 20.0257 8.10673 20.0161 8.26015 19.9229C9.5942 19.1127 16.0005 14.91 16 8.91795C15.9998 7.00491 15.9999 4.30633 16 2.99904C16 2.53491 15.7063 2.12181 15.2586 1.96447C13.5775 1.37362 9.50087 0 7.93466 0C6.36706 0 2.38815 1.37606 0.754237 1.96604ZM14.2857 3.40093C13.4448 3.10992 12.2438 2.7086 11.0607 2.36218C10.3689 2.15962 9.70186 1.98137 9.12699 1.85517C8.52145 1.72225 8.12688 1.67212 7.93466 1.67212C7.74428 1.67212 7.35691 1.72171 6.76372 1.85417C6.20035 1.97998 5.5483 2.15784 4.87249 2.36024C3.71855 2.70583 2.55096 3.1061 1.7339 3.39643C1.71499 4.87036 1.69506 7.38357 1.75029 8.85684C1.82498 10.8493 2.45605 12.5073 3.31256 13.8561C3.65235 13.0055 4.12524 12.3835 4.73533 11.9508C5.0107 11.7554 5.30477 11.6055 5.61249 11.4913C4.63383 10.78 4 9.6425 4 8.36057C4 6.20578 5.79086 4.45897 8 4.45897C10.2091 4.45897 12 6.20578 12 8.36057C12 9.73524 11.2711 10.9439 10.1698 11.6388C11.1503 12.1157 11.941 12.9083 12.4878 13.8761C13.5507 12.4079 14.2859 10.7316 14.2857 8.91808C14.2856 7.18404 14.2856 4.80467 14.2857 3.40093ZM8 11.1474C9.57796 11.1474 10.8571 9.89972 10.8571 8.36057C10.8571 6.82144 9.57796 5.57372 8 5.57372C6.42204 5.57372 5.14286 6.82144 5.14286 8.36057C5.14286 9.89972 6.42204 11.1474 8 11.1474ZM8 12.2622C6.88605 12.2622 6.04103 12.4029 5.40753 12.8523C4.88771 13.221 4.43413 13.8543 4.14095 14.9941C5.44938 16.577 6.98981 17.6027 7.93094 18.1346C8.75791 17.5825 10.1099 16.5849 11.3609 15.24C11.4791 15.113 11.5954 14.9839 11.7096 14.8527C11.0148 13.2883 9.6579 12.2622 8 12.2622Z" fill="white"/>
</svg>
