<svg width="28" height="28" viewBox="0 0 28 28" fill="none" xmlns="http://www.w3.org/2000/svg">
<path fill-rule="evenodd" clip-rule="evenodd" d="M6.15039 0.707696C6.97397 0.84563 7.63463 1.30441 8.00963 1.69021L8.01788 1.6987L9.94457 3.78958C11.132 5.01377 11.6462 6.07633 11.7738 7.00315C11.8879 7.83328 11.6673 8.46425 11.5657 8.75496C11.5582 8.77635 11.5514 8.79589 11.5454 8.81354L10.9785 11.1464L10.9367 11.2323C10.8579 11.3945 10.8388 11.7019 10.9655 12.1542C11.0787 12.5579 11.2705 12.9401 11.4129 13.1683L14.1601 16.5601L14.1735 16.5783C14.5838 17.1412 15.8435 18.1163 17.5409 17.4178C18.673 16.9519 19.5764 16.7012 20.3592 16.7273C21.2153 16.7559 21.8214 17.1086 22.3444 17.5789L22.3667 17.5988L22.3876 17.6202C22.3879 17.6207 22.3894 17.6221 22.3915 17.6242L22.4033 17.6356C22.4138 17.6455 22.4278 17.6584 22.4459 17.6747C22.4824 17.7077 22.531 17.7502 22.5934 17.8038C22.7184 17.9109 22.8894 18.0539 23.1126 18.2375C23.5585 18.6042 24.2003 19.1229 25.0716 19.8223C25.7278 20.3491 26.208 20.7922 26.5497 21.1745C26.8849 21.5498 27.1296 21.9131 27.2503 22.2842C27.3847 22.6977 27.3508 23.0782 27.2031 23.4059C27.1382 23.5503 27.0602 23.6638 27.0032 23.7407C26.9753 23.7783 26.9482 23.8128 26.9294 23.8365L26.9285 23.8375C26.9071 23.8649 26.8963 23.8786 26.8874 23.8906C26.6079 24.2662 25.6441 25.5614 24.4643 26.3693C22.7943 27.5129 20.8503 27.4891 19.3229 27.0676C14.2989 25.9492 9.96339 22.044 6.88539 18.4202C5.32992 16.589 4.06539 14.7934 3.16315 13.3885C2.27882 12.0115 1.7038 10.9493 1.56679 10.5969C0.987164 9.10623 0.730306 7.87517 0.67816 6.90915C0.629594 6.00941 0.753945 5.23677 1.06536 4.72057C1.32623 4.20726 2.08619 3.05924 3.41687 1.69021C4.28324 0.798875 5.26733 0.559798 6.15039 0.707696ZM5.85674 2.46108C5.55088 2.40985 5.15248 2.45523 4.69167 2.92933C3.40869 4.24928 2.77298 5.273 2.64177 5.54298L2.61793 5.59205L2.58826 5.63782C2.55372 5.69113 2.41137 6.0355 2.45336 6.81332C2.49335 7.5541 2.69729 8.59875 3.22372 9.95266C3.22381 9.9529 3.22412 9.95366 3.2243 9.95409L3.22605 9.95834L3.2327 9.97378C3.23854 9.98707 3.24647 10.0045 3.25678 10.0263C3.2775 10.0701 3.30541 10.1267 3.34105 10.1962C3.4123 10.335 3.50988 10.5164 3.63339 10.7354C3.88018 11.1732 4.225 11.7519 4.65903 12.4279C5.52755 13.7802 6.74576 15.5097 8.24035 17.2693C11.2576 20.8216 15.2826 24.355 19.7298 25.3368L19.7537 25.342L19.7774 25.3487C20.9934 25.6886 22.3557 25.6586 23.4599 24.9024C24.3634 24.2838 25.1692 23.2218 25.4608 22.8296C25.4822 22.8008 25.504 22.773 25.5209 22.7517C25.4775 22.6745 25.3913 22.5464 25.2241 22.3592C24.9718 22.0768 24.5733 21.7022 23.9587 21.2087C23.0867 20.5088 22.4381 19.9845 21.9834 19.6105C21.576 19.2755 21.2846 19.0294 21.1389 18.8857C20.8323 18.6134 20.6112 18.5145 20.3001 18.5041C19.9102 18.4911 19.2973 18.6174 18.2175 19.0618C15.5098 20.1761 13.461 18.6018 12.7515 17.6455L9.9699 14.2112L9.94429 14.1718C9.7197 13.8252 9.4292 13.2602 9.2537 12.6338C9.09277 12.0596 8.98398 11.2747 9.29321 10.5528L9.83437 8.32576L9.84462 8.2941C9.85833 8.25178 9.87225 8.21052 9.88596 8.16983C9.98065 7.88901 10.0662 7.63544 10.0125 7.24544C9.95149 6.80183 9.67989 6.06793 8.66136 5.02006L8.65312 5.01156L6.7277 2.92205C6.54799 2.74032 6.21728 2.52146 5.85674 2.46108Z" fill="#AC1E50"/>
</svg>
