<svg width="22" height="28" viewBox="0 0 22 28" fill="none" xmlns="http://www.w3.org/2000/svg">
<path d="M18.3749 14.8901C18.3883 13.8169 18.6636 12.7646 19.1753 11.8312C19.6869 10.8977 20.4183 10.1135 21.3013 9.55133C20.7403 8.72179 20.0003 8.03909 19.1399 7.5575C18.2796 7.0759 17.3226 6.80867 16.3451 6.77696C14.2599 6.55033 12.2384 8.06899 11.1758 8.06899C10.0926 8.06899 8.45656 6.79953 6.69483 6.837C5.55523 6.87513 4.4447 7.21829 3.47128 7.83297C2.49786 8.44765 1.69486 9.31292 1.14046 10.3445C-1.26116 14.65 0.530192 20.9775 2.83076 24.4577C3.98176 26.1619 5.3269 28.0654 7.08706 27.9979C8.8095 27.9239 9.45277 26.8606 11.5319 26.8606C13.5918 26.8606 14.1953 27.9979 15.9911 27.955C17.8393 27.924 19.0038 26.2433 20.1144 24.523C20.9415 23.3088 21.5778 21.9667 22 20.5466C20.9262 20.0764 20.0099 19.2892 19.3653 18.2833C18.7206 17.2775 18.3762 16.0973 18.3749 14.8901Z" fill="#505050"/>
<path d="M14.9846 4.48828C15.9924 3.2357 16.4888 1.62563 16.3686 0C14.829 0.167504 13.4069 0.929427 12.3855 2.13399C11.8861 2.72248 11.5036 3.40708 11.26 4.14866C11.0163 4.89032 10.9162 5.6744 10.9653 6.45609C11.7354 6.46432 12.4972 6.29146 13.1934 5.95061C13.8896 5.60975 14.5021 5.10979 14.9846 4.48828Z" fill="#505050"/>
</svg>
