<svg width="28" height="28" viewBox="0 0 28 28" fill="none" xmlns="http://www.w3.org/2000/svg">
<path d="M18.967 21.7399C20.082 21.5675 20.8784 20.8778 21.5156 19.8433C21.8342 19.3261 21.8342 18.6365 21.6749 18.1192C21.5156 17.9468 21.197 17.7744 20.8785 17.602L18.3298 16.2227C18.0113 16.0502 17.852 16.0502 17.5334 16.3951C17.2148 16.7399 16.4184 17.602 16.2591 17.9468C16.0998 18.2916 15.7812 18.2916 15.4627 18.1192C14.3476 17.602 13.3919 16.9123 12.4362 16.0502C11.6397 15.1882 10.8433 14.1537 10.2062 13.1192C10.0469 12.7744 10.2062 12.4296 10.5247 12.2571C10.6044 12.1709 10.684 12.0416 10.7637 11.9123C10.8433 11.783 10.923 11.6537 11.0026 11.5675C11.1619 11.3951 11.3212 11.0502 11.1619 10.7054C11.3212 10.533 11.3212 10.1882 11.1619 10.0158C11.1619 9.8821 10.6832 8.60858 10.3196 7.64122C10.2142 7.36078 10.1185 7.10606 10.0469 6.91231C9.88758 6.22266 9.56901 6.22266 9.25043 6.22266H8.45399C8.13541 6.22266 7.81684 6.39507 7.49826 6.7399C6.70182 7.60197 6.22396 8.80886 6.22396 10.1882C6.38325 11.7399 6.86111 13.2916 7.81684 14.4985C9.40972 17.0847 11.6397 19.3261 14.3476 20.7054C17.0609 21.8801 18.041 21.8043 18.6657 21.7559C18.7745 21.7475 18.8725 21.7399 18.967 21.7399Z" fill="#07743E"/>
<path fill-rule="evenodd" clip-rule="evenodd" d="M2.66797 27.3337L8.0013 25.9106C9.80476 26.8209 11.8432 27.3337 14.0013 27.3337C21.3651 27.3337 27.3346 21.3641 27.3346 14.0003C27.3346 6.63653 21.3651 0.666992 14.0013 0.666992C6.63751 0.666992 0.667969 6.63653 0.667969 14.0003C0.667969 17.4537 1.98086 20.6005 4.13475 22.9687L2.66797 27.3337ZM6.4048 22.4921L5.61433 21.623C3.7822 19.6086 2.66797 16.9369 2.66797 14.0003C2.66797 7.7411 7.74207 2.66699 14.0013 2.66699C20.2605 2.66699 25.3346 7.7411 25.3346 14.0003C25.3346 20.2596 20.2605 25.3337 14.0013 25.3337C12.1633 25.3337 10.4329 24.8976 8.90252 24.1252L8.22211 23.7817L5.74977 24.4414L6.4048 22.4921Z" fill="#07743E"/>
</svg>
