<svg width="120" height="120" viewBox="0 0 120 120" fill="none" xmlns="http://www.w3.org/2000/svg">
<path fill-rule="evenodd" clip-rule="evenodd" d="M76.5395 94.5766L79.3609 75.8481H79.521L82.3427 94.5766H76.5395ZM90.2029 106.641L83.9144 68.6926C83.8223 68.1372 83.3633 67.7317 82.8267 67.7317H76.0573C75.5207 67.7317 75.0615 68.1372 74.9697 68.6926L68.6812 106.641C68.5635 107.351 69.0833 108 69.7689 108H73.5432C74.0855 108 74.5477 107.586 74.6333 107.023L75.6142 100.585H83.2699L84.2508 107.023C84.3363 107.586 84.7985 108 85.3409 108H89.1152C89.8007 108 90.3205 107.351 90.2029 106.641Z" fill="#505050"/>
<path fill-rule="evenodd" clip-rule="evenodd" d="M31.2748 94.5766L34.0962 75.8481H34.2563L37.078 94.5766H31.2748ZM44.9381 106.641L38.6497 68.6926C38.5575 68.1372 38.0986 67.7317 37.562 67.7317H30.7926C30.256 67.7317 29.7968 68.1372 29.7049 68.6926L23.4165 106.641C23.2988 107.351 23.8186 108 24.5041 108H28.2785C28.8208 108 29.283 107.586 29.3686 107.023L30.3494 100.585H38.0052L38.986 107.023C39.0716 107.586 39.5338 108 40.0761 108H43.8505C44.536 108 45.0558 107.351 44.9381 106.641Z" fill="#505050"/>
<path fill-rule="evenodd" clip-rule="evenodd" d="M16.5524 81.4769C16.5524 84.8864 15.7741 85.7532 13.3374 85.7532H10.8988V73.4675H13.3374C15.7741 73.4675 16.5524 74.4416 16.5524 77.6893V81.4769ZM23.3995 76.3372C23.3995 69.8966 20.6508 67.7317 15.048 67.7317H5.08336C4.48493 67.7317 4 68.2379 4 68.8624V106.87C4 107.494 4.48493 108 5.08336 108H9.81556C10.414 108 10.8989 107.494 10.8989 106.87V91.7632H15.048C20.4943 91.7632 23.3995 89.0572 23.3995 82.9399V76.3372Z" fill="#505050"/>
<path fill-rule="evenodd" clip-rule="evenodd" d="M12.8999 63.2001H13.9947C20.5572 63.2001 23.2419 58.9872 23.2419 53.6677V52.5607C23.2419 47.874 21.7498 45.5571 18.4691 42.3436L13.6961 37.7083C11.7076 35.7596 10.9613 34.6541 10.9613 32.3357V31.9678C10.9613 29.7025 11.8563 28.8074 13.7947 28.8074C15.5844 28.8074 16.4807 29.7555 16.4807 32.1252V34.8185C16.4807 35.4258 16.9455 35.9185 17.5191 35.9185H21.8061C22.3795 35.9185 22.8445 35.4258 22.8445 34.8185V30.7564C22.8445 25.6473 19.7112 23.1726 14.2922 23.1726H13.2486C7.332 23.1726 4.24879 25.9106 4.24879 31.8619V32.9686C4.24879 37.2876 5.83981 39.8678 8.77306 42.6602L13.5962 47.2425C15.5844 49.1384 16.3806 50.4542 16.3806 53.0348V53.4571C16.3806 55.9846 15.3857 57.2488 13.4473 57.2488C11.5076 57.2488 10.464 56.1951 10.464 54.0356V49.7644C10.464 49.1571 9.99916 48.6644 9.42557 48.6644H5.03866C4.46506 48.6644 4 49.1571 4 49.7644V55.3C4 60.3564 7.08347 63.2001 12.8999 63.2001Z" fill="#505050"/>
<path fill-rule="evenodd" clip-rule="evenodd" d="M28.7819 63.2568H43.8834C44.4751 63.2568 44.9548 62.7508 44.9548 62.1264V57.9466C44.9548 57.3222 44.4751 56.8159 43.8834 56.8159H34.3782V45.6661H41.8841C42.4757 45.6661 42.9551 45.1602 42.9551 44.5357V40.356C42.9551 39.7315 42.4757 39.2253 41.8841 39.2253H34.3782V29.2661H43.8834C44.4751 29.2661 44.9548 28.7601 44.9548 28.1357V24.1192C44.9548 23.4948 44.4751 22.9885 43.8834 22.9885H28.7819C28.1902 22.9885 27.7108 23.4948 27.7108 24.1192V62.1264C27.7108 62.7508 28.1902 63.2568 28.7819 63.2568Z" fill="#505050"/>
<path fill-rule="evenodd" clip-rule="evenodd" d="M63.9914 23.9382L60.0429 47.3554L56.0947 23.9382C56.0019 23.388 55.5622 22.9885 55.0499 22.9885H48.1721C47.5855 22.9885 47.11 23.5079 47.11 24.1483V62.097C47.11 62.7377 47.5855 63.2568 48.1721 63.2568H51.6446C52.2333 63.2568 52.7095 62.7351 52.7069 62.0924C52.6847 56.9577 52.5979 36.4202 52.5979 32.5983H52.7461C53.1748 35.3414 57.1306 57.4746 57.9977 62.3213C58.0952 62.8655 58.5317 63.2568 59.0399 63.2568H61.0459C61.5541 63.2568 61.9909 62.8655 62.0881 62.3213C62.9552 57.4746 66.9112 35.3414 67.3399 32.5983H67.4879C67.4879 36.6242 67.4014 56.984 67.3792 62.0927C67.3765 62.7354 67.8528 63.2568 68.4412 63.2568H71.9137C72.5003 63.2568 72.976 62.7377 72.976 62.097V24.1483C72.976 23.5079 72.5003 22.9885 71.9137 22.9885H65.0362C64.5236 22.9885 64.0842 23.388 63.9914 23.9382Z" fill="#505050"/>
<path fill-rule="evenodd" clip-rule="evenodd" d="M59.787 81.9999C59.787 84.5972 58.9652 86.0039 56.656 86.0039H53.8333V73.1432H56.656C58.9652 73.1432 59.787 74.1717 59.787 76.9323V81.9999ZM59.1197 67.7317H48.1822C47.5901 67.7317 47.11 68.2379 47.11 68.8621V106.87C47.11 107.494 47.5901 108 48.1822 108H52.7609C53.353 108 53.8331 107.494 53.8331 106.87V91.7424H56.6558C58.9146 91.7424 59.7868 92.9327 59.7868 95.6933V106.87C59.7868 107.494 60.2666 108 60.8587 108H65.4374C66.0295 108 66.5095 107.494 66.5095 106.87V94.5029C66.5095 90.3899 64.6621 88.6579 62.6612 87.8454C64.4053 87.304 66.5095 85.572 66.5095 81.3503V75.3632C66.5095 70.0051 64.0467 67.7317 59.1197 67.7317Z" fill="#505050"/>
<path fill-rule="evenodd" clip-rule="evenodd" d="M105.053 81.9999C105.053 84.5972 104.231 86.0039 101.922 86.0039H99.0991V73.1432H101.922C104.231 73.1432 105.053 74.1717 105.053 76.9323V81.9999ZM111.775 81.3503V75.3632C111.775 70.0051 109.312 67.7317 104.385 67.7317H93.4475C92.8554 67.7317 92.3753 68.2379 92.3753 68.8621V106.87C92.3753 107.494 92.8554 108 93.4475 108H98.0262C98.6183 108 99.0984 107.494 99.0984 106.87V91.7424H101.921C104.18 91.7424 105.052 92.9327 105.052 95.6933V106.87C105.052 107.494 105.532 108 106.124 108H110.703C111.295 108 111.775 107.494 111.775 106.87V94.5029C111.775 90.3899 109.927 88.6579 107.926 87.8454C109.671 87.304 111.775 85.572 111.775 81.3503Z" fill="#505050"/>
<path fill-rule="evenodd" clip-rule="evenodd" d="M115.142 29.4929L98.843 12.8749C97.6989 11.7084 95.8439 11.7084 94.6994 12.8749L78.4006 29.4929C77.2564 30.6595 77.2564 32.5511 78.4006 33.7177L81.4321 36.8085C82.5762 37.9751 84.4315 37.9751 85.5757 36.8085L91.4834 30.7851C91.5624 30.7043 91.6978 30.7615 91.6978 30.8758V60.8541C91.6978 62.8132 94.0211 63.7944 95.3802 62.409L99.1108 58.605C100.861 56.8205 101.845 54.3997 101.845 51.8756V30.8758C101.845 30.7615 101.98 30.7043 102.059 30.7851L107.967 36.8085C109.111 37.9751 110.966 37.9751 112.11 36.8085L115.142 33.7177C116.286 32.5511 116.286 30.6595 115.142 29.4929Z" fill="#D60B52"/>
</svg>
