<svg width="120" height="120" viewBox="0 0 120 120" fill="none" xmlns="http://www.w3.org/2000/svg">
<rect width="120" height="120" fill="white"/>
<g clip-path="url(#clip0_1155_493)">
<path d="M115.34 4.65918H4.66016V115.339H115.34V4.65918Z" fill="white"/>
<path d="M9.08548 4.65918H4.66016V9.0845H9.08548V4.65918Z" fill="black"/>
<path d="M9.08548 9.08496H4.66016V13.5103H9.08548V9.08496Z" fill="black"/>
<path d="M9.08548 13.5156H4.66016V17.9409H9.08548V13.5156Z" fill="black"/>
<path d="M9.08548 17.9414H4.66016V22.3667H9.08548V17.9414Z" fill="black"/>
<path d="M9.08548 22.3662H4.66016V26.7915H9.08548V22.3662Z" fill="black"/>
<path d="M9.08548 26.7979H4.66016V31.2232H9.08548V26.7979Z" fill="black"/>
<path d="M9.08548 31.2227H4.66016V35.648H9.08548V31.2227Z" fill="black"/>
<path d="M9.08548 40.0791H4.66016V44.5044H9.08548V40.0791Z" fill="black"/>
<path d="M9.08548 53.3613H4.66016V57.7866H9.08548V53.3613Z" fill="black"/>
<path d="M9.08548 57.7861H4.66016V62.2115H9.08548V57.7861Z" fill="black"/>
<path d="M9.08548 66.6367H4.66016V71.062H9.08548V66.6367Z" fill="black"/>
<path d="M9.08548 75.4932H4.66016V79.9185H9.08548V75.4932Z" fill="black"/>
<path d="M9.08548 84.3496H4.66016V88.7749H9.08548V84.3496Z" fill="black"/>
<path d="M9.08548 88.7754H4.66016V93.2007H9.08548V88.7754Z" fill="black"/>
<path d="M9.08548 93.2002H4.66016V97.6255H9.08548V93.2002Z" fill="black"/>
<path d="M9.08548 97.6318H4.66016V102.057H9.08548V97.6318Z" fill="black"/>
<path d="M9.08548 102.057H4.66016V106.482H9.08548V102.057Z" fill="black"/>
<path d="M9.08548 106.482H4.66016V110.908H9.08548V106.482Z" fill="black"/>
<path d="M9.08548 110.913H4.66016V115.338H9.08548V110.913Z" fill="black"/>
<path d="M13.5113 4.65918H9.08594V9.0845H13.5113V4.65918Z" fill="black"/>
<path d="M13.5113 31.2227H9.08594V35.648H13.5113V31.2227Z" fill="black"/>
<path d="M13.5113 40.0791H9.08594V44.5044H13.5113V40.0791Z" fill="black"/>
<path d="M13.5113 44.5049H9.08594V48.9302H13.5113V44.5049Z" fill="black"/>
<path d="M13.5113 48.9297H9.08594V53.355H13.5113V48.9297Z" fill="black"/>
<path d="M13.5113 53.3613H9.08594V57.7866H13.5113V53.3613Z" fill="black"/>
<path d="M13.5113 62.2119H9.08594V66.6373H13.5113V62.2119Z" fill="black"/>
<path d="M13.5113 71.0684H9.08594V75.4937H13.5113V71.0684Z" fill="black"/>
<path d="M13.5113 75.4932H9.08594V79.9185H13.5113V75.4932Z" fill="black"/>
<path d="M13.5113 84.3496H9.08594V88.7749H13.5113V84.3496Z" fill="black"/>
<path d="M13.5113 110.913H9.08594V115.338H13.5113V110.913Z" fill="black"/>
<path d="M17.9409 4.65918H13.5156V9.0845H17.9409V4.65918Z" fill="black"/>
<path d="M17.9409 13.5156H13.5156V17.9409H17.9409V13.5156Z" fill="black"/>
<path d="M17.9409 17.9414H13.5156V22.3667H17.9409V17.9414Z" fill="black"/>
<path d="M17.9409 22.3662H13.5156V26.7915H17.9409V22.3662Z" fill="black"/>
<path d="M17.9409 31.2227H13.5156V35.648H17.9409V31.2227Z" fill="black"/>
<path d="M17.9409 44.5049H13.5156V48.9302H17.9409V44.5049Z" fill="black"/>
<path d="M17.9409 62.2119H13.5156V66.6373H17.9409V62.2119Z" fill="black"/>
<path d="M17.9409 66.6367H13.5156V71.062H17.9409V66.6367Z" fill="black"/>
<path d="M17.9409 75.4932H13.5156V79.9185H17.9409V75.4932Z" fill="black"/>
<path d="M17.9409 84.3496H13.5156V88.7749H17.9409V84.3496Z" fill="black"/>
<path d="M17.9409 93.2002H13.5156V97.6255H17.9409V93.2002Z" fill="black"/>
<path d="M17.9409 97.6318H13.5156V102.057H17.9409V97.6318Z" fill="black"/>
<path d="M17.9409 102.057H13.5156V106.482H17.9409V102.057Z" fill="black"/>
<path d="M17.9409 110.913H13.5156V115.338H17.9409V110.913Z" fill="black"/>
<path d="M22.3667 4.65918H17.9414V9.0845H22.3667V4.65918Z" fill="black"/>
<path d="M22.3667 13.5156H17.9414V17.9409H22.3667V13.5156Z" fill="black"/>
<path d="M22.3667 17.9414H17.9414V22.3667H22.3667V17.9414Z" fill="black"/>
<path d="M22.3667 22.3662H17.9414V26.7915H22.3667V22.3662Z" fill="black"/>
<path d="M22.3667 31.2227H17.9414V35.648H22.3667V31.2227Z" fill="black"/>
<path d="M22.3667 40.0791H17.9414V44.5044H22.3667V40.0791Z" fill="black"/>
<path d="M22.3667 44.5049H17.9414V48.9302H22.3667V44.5049Z" fill="black"/>
<path d="M22.3667 48.9297H17.9414V53.355H22.3667V48.9297Z" fill="black"/>
<path d="M22.3667 53.3613H17.9414V57.7866H22.3667V53.3613Z" fill="black"/>
<path d="M22.3667 71.0684H17.9414V75.4937H22.3667V71.0684Z" fill="black"/>
<path d="M22.3667 84.3496H17.9414V88.7749H22.3667V84.3496Z" fill="black"/>
<path d="M22.3667 93.2002H17.9414V97.6255H22.3667V93.2002Z" fill="black"/>
<path d="M22.3667 97.6318H17.9414V102.057H22.3667V97.6318Z" fill="black"/>
<path d="M22.3667 102.057H17.9414V106.482H22.3667V102.057Z" fill="black"/>
<path d="M22.3667 110.913H17.9414V115.338H22.3667V110.913Z" fill="black"/>
<path d="M26.7925 4.65918H22.3672V9.0845H26.7925V4.65918Z" fill="black"/>
<path d="M26.7925 13.5156H22.3672V17.9409H26.7925V13.5156Z" fill="black"/>
<path d="M26.7925 17.9414H22.3672V22.3667H26.7925V17.9414Z" fill="black"/>
<path d="M26.7925 22.3662H22.3672V26.7915H26.7925V22.3662Z" fill="black"/>
<path d="M26.7925 31.2227H22.3672V35.648H26.7925V31.2227Z" fill="black"/>
<path d="M26.7925 44.5049H22.3672V48.9302H26.7925V44.5049Z" fill="black"/>
<path d="M26.7925 57.7861H22.3672V62.2115H26.7925V57.7861Z" fill="black"/>
<path d="M26.7925 66.6367H22.3672V71.062H26.7925V66.6367Z" fill="black"/>
<path d="M26.7925 71.0684H22.3672V75.4937H26.7925V71.0684Z" fill="black"/>
<path d="M26.7925 84.3496H22.3672V88.7749H26.7925V84.3496Z" fill="black"/>
<path d="M26.7925 93.2002H22.3672V97.6255H26.7925V93.2002Z" fill="black"/>
<path d="M26.7925 97.6318H22.3672V102.057H26.7925V97.6318Z" fill="black"/>
<path d="M26.7925 102.057H22.3672V106.482H26.7925V102.057Z" fill="black"/>
<path d="M26.7925 110.913H22.3672V115.338H26.7925V110.913Z" fill="black"/>
<path d="M31.2222 4.65918H26.7969V9.0845H31.2222V4.65918Z" fill="black"/>
<path d="M31.2222 31.2227H26.7969V35.648H31.2222V31.2227Z" fill="black"/>
<path d="M31.2222 48.9297H26.7969V53.355H31.2222V48.9297Z" fill="black"/>
<path d="M31.2222 66.6367H26.7969V71.062H31.2222V66.6367Z" fill="black"/>
<path d="M31.2222 71.0684H26.7969V75.4937H31.2222V71.0684Z" fill="black"/>
<path d="M31.2222 84.3496H26.7969V88.7749H31.2222V84.3496Z" fill="black"/>
<path d="M31.2222 110.913H26.7969V115.338H31.2222V110.913Z" fill="black"/>
<path d="M35.648 4.65918H31.2227V9.0845H35.648V4.65918Z" fill="black"/>
<path d="M35.648 9.08496H31.2227V13.5103H35.648V9.08496Z" fill="black"/>
<path d="M35.648 13.5156H31.2227V17.9409H35.648V13.5156Z" fill="black"/>
<path d="M35.648 17.9414H31.2227V22.3667H35.648V17.9414Z" fill="black"/>
<path d="M35.648 22.3662H31.2227V26.7915H35.648V22.3662Z" fill="black"/>
<path d="M35.648 26.7979H31.2227V31.2232H35.648V26.7979Z" fill="black"/>
<path d="M35.648 31.2227H31.2227V35.648H35.648V31.2227Z" fill="black"/>
<path d="M35.648 40.0791H31.2227V44.5044H35.648V40.0791Z" fill="black"/>
<path d="M35.648 48.9297H31.2227V53.355H35.648V48.9297Z" fill="black"/>
<path d="M35.648 57.7861H31.2227V62.2115H35.648V57.7861Z" fill="black"/>
<path d="M35.648 66.6367H31.2227V71.062H35.648V66.6367Z" fill="black"/>
<path d="M35.648 75.4932H31.2227V79.9185H35.648V75.4932Z" fill="black"/>
<path d="M35.648 84.3496H31.2227V88.7749H35.648V84.3496Z" fill="black"/>
<path d="M35.648 88.7754H31.2227V93.2007H35.648V88.7754Z" fill="black"/>
<path d="M35.648 93.2002H31.2227V97.6255H35.648V93.2002Z" fill="black"/>
<path d="M35.648 97.6318H31.2227V102.057H35.648V97.6318Z" fill="black"/>
<path d="M35.648 102.057H31.2227V106.482H35.648V102.057Z" fill="black"/>
<path d="M35.648 106.482H31.2227V110.908H35.648V106.482Z" fill="black"/>
<path d="M35.648 110.913H31.2227V115.338H35.648V110.913Z" fill="black"/>
<path d="M40.0738 40.0791H35.6484V44.5044H40.0738V40.0791Z" fill="black"/>
<path d="M40.0738 48.9297H35.6484V53.355H40.0738V48.9297Z" fill="black"/>
<path d="M40.0738 57.7861H35.6484V62.2115H40.0738V57.7861Z" fill="black"/>
<path d="M40.0738 75.4932H35.6484V79.9185H40.0738V75.4932Z" fill="black"/>
<path d="M44.5073 9.08496H40.082V13.5103H44.5073V9.08496Z" fill="black"/>
<path d="M44.5073 13.5156H40.082V17.9409H44.5073V13.5156Z" fill="black"/>
<path d="M44.5073 22.3662H40.082V26.7915H44.5073V22.3662Z" fill="black"/>
<path d="M44.5073 26.7979H40.082V31.2232H44.5073V26.7979Z" fill="black"/>
<path d="M44.5073 31.2227H40.082V35.648H44.5073V31.2227Z" fill="black"/>
<path d="M44.5073 35.6484H40.082V40.0738H44.5073V35.6484Z" fill="black"/>
<path d="M44.5073 44.5049H40.082V48.9302H44.5073V44.5049Z" fill="black"/>
<path d="M44.5073 53.3613H40.082V57.7866H44.5073V53.3613Z" fill="black"/>
<path d="M44.5073 57.7861H40.082V62.2115H44.5073V57.7861Z" fill="black"/>
<path d="M44.5073 66.6367H40.082V71.062H44.5073V66.6367Z" fill="black"/>
<path d="M44.5073 75.4932H40.082V79.9185H44.5073V75.4932Z" fill="black"/>
<path d="M44.5073 79.9189H40.082V84.3443H44.5073V79.9189Z" fill="black"/>
<path d="M44.5073 84.3496H40.082V88.7749H44.5073V84.3496Z" fill="black"/>
<path d="M44.5073 97.6318H40.082V102.057H44.5073V97.6318Z" fill="black"/>
<path d="M44.5073 106.482H40.082V110.908H44.5073V106.482Z" fill="black"/>
<path d="M44.5073 110.913H40.082V115.338H44.5073V110.913Z" fill="black"/>
<path d="M48.9292 4.65918H44.5039V9.0845H48.9292V4.65918Z" fill="black"/>
<path d="M48.9292 13.5156H44.5039V17.9409H48.9292V13.5156Z" fill="black"/>
<path d="M48.9292 17.9414H44.5039V22.3667H48.9292V17.9414Z" fill="black"/>
<path d="M48.9292 26.7979H44.5039V31.2232H48.9292V26.7979Z" fill="black"/>
<path d="M48.9292 35.6484H44.5039V40.0738H48.9292V35.6484Z" fill="black"/>
<path d="M48.9292 48.9297H44.5039V53.355H48.9292V48.9297Z" fill="black"/>
<path d="M48.9292 62.2119H44.5039V66.6373H48.9292V62.2119Z" fill="black"/>
<path d="M48.9292 66.6367H44.5039V71.062H48.9292V66.6367Z" fill="black"/>
<path d="M48.9292 75.4932H44.5039V79.9185H48.9292V75.4932Z" fill="black"/>
<path d="M48.9292 79.9189H44.5039V84.3443H48.9292V79.9189Z" fill="black"/>
<path d="M48.9292 84.3496H44.5039V88.7749H48.9292V84.3496Z" fill="black"/>
<path d="M48.9292 88.7754H44.5039V93.2007H48.9292V88.7754Z" fill="black"/>
<path d="M48.9292 93.2002H44.5039V97.6255H48.9292V93.2002Z" fill="black"/>
<path d="M48.9292 97.6318H44.5039V102.057H48.9292V97.6318Z" fill="black"/>
<path d="M48.9292 102.057H44.5039V106.482H48.9292V102.057Z" fill="black"/>
<path d="M48.9292 106.482H44.5039V110.908H48.9292V106.482Z" fill="black"/>
<path d="M53.355 13.5156H48.9297V17.9409H53.355V13.5156Z" fill="black"/>
<path d="M53.355 17.9414H48.9297V22.3667H53.355V17.9414Z" fill="black"/>
<path d="M53.355 31.2227H48.9297V35.648H53.355V31.2227Z" fill="black"/>
<path d="M53.355 40.0791H48.9297V44.5044H53.355V40.0791Z" fill="black"/>
<path d="M53.355 44.5049H48.9297V48.9302H53.355V44.5049Z" fill="black"/>
<path d="M53.355 48.9297H48.9297V53.355H53.355V48.9297Z" fill="black"/>
<path d="M53.355 62.2119H48.9297V66.6373H53.355V62.2119Z" fill="black"/>
<path d="M53.355 75.4932H48.9297V79.9185H53.355V75.4932Z" fill="black"/>
<path d="M53.355 79.9189H48.9297V84.3443H53.355V79.9189Z" fill="black"/>
<path d="M53.355 84.3496H48.9297V88.7749H53.355V84.3496Z" fill="black"/>
<path d="M53.355 110.913H48.9297V115.338H53.355V110.913Z" fill="black"/>
<path d="M57.7886 9.08496H53.3633V13.5103H57.7886V9.08496Z" fill="black"/>
<path d="M57.7886 13.5156H53.3633V17.9409H57.7886V13.5156Z" fill="black"/>
<path d="M57.7886 17.9414H53.3633V22.3667H57.7886V17.9414Z" fill="black"/>
<path d="M57.7886 26.7979H53.3633V31.2232H57.7886V26.7979Z" fill="black"/>
<path d="M57.7886 44.5049H53.3633V48.9302H57.7886V44.5049Z" fill="black"/>
<path d="M57.7886 53.3613H53.3633V57.7866H57.7886V53.3613Z" fill="black"/>
<path d="M57.7886 66.6367H53.3633V71.062H57.7886V66.6367Z" fill="black"/>
<path d="M57.7886 71.0684H53.3633V75.4937H57.7886V71.0684Z" fill="black"/>
<path d="M57.7886 79.9189H53.3633V84.3443H57.7886V79.9189Z" fill="black"/>
<path d="M57.7886 88.7754H53.3633V93.2007H57.7886V88.7754Z" fill="black"/>
<path d="M57.7886 93.2002H53.3633V97.6255H57.7886V93.2002Z" fill="black"/>
<path d="M57.7886 110.913H53.3633V115.338H57.7886V110.913Z" fill="black"/>
<path d="M62.2144 4.65918H57.7891V9.0845H62.2144V4.65918Z" fill="black"/>
<path d="M62.2144 9.08496H57.7891V13.5103H62.2144V9.08496Z" fill="black"/>
<path d="M62.2144 13.5156H57.7891V17.9409H62.2144V13.5156Z" fill="black"/>
<path d="M62.2144 31.2227H57.7891V35.648H62.2144V31.2227Z" fill="black"/>
<path d="M62.2144 35.6484H57.7891V40.0738H62.2144V35.6484Z" fill="black"/>
<path d="M62.2144 40.0791H57.7891V44.5044H62.2144V40.0791Z" fill="black"/>
<path d="M62.2144 53.3613H57.7891V57.7866H62.2144V53.3613Z" fill="black"/>
<path d="M62.2144 66.6367H57.7891V71.062H62.2144V66.6367Z" fill="black"/>
<path d="M62.2144 71.0684H57.7891V75.4937H62.2144V71.0684Z" fill="black"/>
<path d="M62.2144 102.057H57.7891V106.482H62.2144V102.057Z" fill="black"/>
<path d="M66.6363 26.7979H62.2109V31.2232H66.6363V26.7979Z" fill="black"/>
<path d="M66.6363 40.0791H62.2109V44.5044H66.6363V40.0791Z" fill="black"/>
<path d="M66.6363 48.9297H62.2109V53.355H66.6363V48.9297Z" fill="black"/>
<path d="M66.6363 53.3613H62.2109V57.7866H66.6363V53.3613Z" fill="black"/>
<path d="M66.6363 57.7861H62.2109V62.2115H66.6363V57.7861Z" fill="black"/>
<path d="M66.6363 66.6367H62.2109V71.062H66.6363V66.6367Z" fill="black"/>
<path d="M66.6363 71.0684H62.2109V75.4937H66.6363V71.0684Z" fill="black"/>
<path d="M66.6363 79.9189H62.2109V84.3443H66.6363V79.9189Z" fill="black"/>
<path d="M66.6363 93.2002H62.2109V97.6255H66.6363V93.2002Z" fill="black"/>
<path d="M66.6363 97.6318H62.2109V102.057H66.6363V97.6318Z" fill="black"/>
<path d="M66.6363 102.057H62.2109V106.482H66.6363V102.057Z" fill="black"/>
<path d="M66.6363 106.482H62.2109V110.908H66.6363V106.482Z" fill="black"/>
<path d="M66.6363 110.913H62.2109V115.338H66.6363V110.913Z" fill="black"/>
<path d="M71.062 13.5156H66.6367V17.9409H71.062V13.5156Z" fill="black"/>
<path d="M71.062 26.7979H66.6367V31.2232H71.062V26.7979Z" fill="black"/>
<path d="M71.062 31.2227H66.6367V35.648H71.062V31.2227Z" fill="black"/>
<path d="M71.062 35.6484H66.6367V40.0738H71.062V35.6484Z" fill="black"/>
<path d="M71.062 44.5049H66.6367V48.9302H71.062V44.5049Z" fill="black"/>
<path d="M71.062 48.9297H66.6367V53.355H71.062V48.9297Z" fill="black"/>
<path d="M71.062 57.7861H66.6367V62.2115H71.062V57.7861Z" fill="black"/>
<path d="M71.062 62.2119H66.6367V66.6373H71.062V62.2119Z" fill="black"/>
<path d="M71.062 71.0684H66.6367V75.4937H71.062V71.0684Z" fill="black"/>
<path d="M71.062 75.4932H66.6367V79.9185H71.062V75.4932Z" fill="black"/>
<path d="M71.062 84.3496H66.6367V88.7749H71.062V84.3496Z" fill="black"/>
<path d="M71.062 88.7754H66.6367V93.2007H71.062V88.7754Z" fill="black"/>
<path d="M71.062 97.6318H66.6367V102.057H71.062V97.6318Z" fill="black"/>
<path d="M71.062 110.913H66.6367V115.338H71.062V110.913Z" fill="black"/>
<path d="M75.4956 4.65918H71.0703V9.0845H75.4956V4.65918Z" fill="black"/>
<path d="M75.4956 9.08496H71.0703V13.5103H75.4956V9.08496Z" fill="black"/>
<path d="M75.4956 17.9414H71.0703V22.3667H75.4956V17.9414Z" fill="black"/>
<path d="M75.4956 22.3662H71.0703V26.7915H75.4956V22.3662Z" fill="black"/>
<path d="M75.4956 26.7979H71.0703V31.2232H75.4956V26.7979Z" fill="black"/>
<path d="M75.4956 35.6484H71.0703V40.0738H75.4956V35.6484Z" fill="black"/>
<path d="M75.4956 53.3613H71.0703V57.7866H75.4956V53.3613Z" fill="black"/>
<path d="M75.4956 75.4932H71.0703V79.9185H75.4956V75.4932Z" fill="black"/>
<path d="M75.4956 79.9189H71.0703V84.3443H75.4956V79.9189Z" fill="black"/>
<path d="M75.4956 84.3496H71.0703V88.7749H75.4956V84.3496Z" fill="black"/>
<path d="M75.4956 88.7754H71.0703V93.2007H75.4956V88.7754Z" fill="black"/>
<path d="M75.4956 102.057H71.0703V106.482H75.4956V102.057Z" fill="black"/>
<path d="M75.4956 106.482H71.0703V110.908H75.4956V106.482Z" fill="black"/>
<path d="M75.4956 110.913H71.0703V115.338H75.4956V110.913Z" fill="black"/>
<path d="M79.9214 4.65918H75.4961V9.0845H79.9214V4.65918Z" fill="black"/>
<path d="M79.9214 13.5156H75.4961V17.9409H79.9214V13.5156Z" fill="black"/>
<path d="M79.9214 17.9414H75.4961V22.3667H79.9214V17.9414Z" fill="black"/>
<path d="M79.9214 26.7979H75.4961V31.2232H79.9214V26.7979Z" fill="black"/>
<path d="M79.9214 31.2227H75.4961V35.648H79.9214V31.2227Z" fill="black"/>
<path d="M79.9214 48.9297H75.4961V53.355H79.9214V48.9297Z" fill="black"/>
<path d="M79.9214 53.3613H75.4961V57.7866H79.9214V53.3613Z" fill="black"/>
<path d="M79.9214 62.2119H75.4961V66.6373H79.9214V62.2119Z" fill="black"/>
<path d="M79.9214 71.0684H75.4961V75.4937H79.9214V71.0684Z" fill="black"/>
<path d="M79.9214 75.4932H75.4961V79.9185H79.9214V75.4932Z" fill="black"/>
<path d="M79.9214 79.9189H75.4961V84.3443H79.9214V79.9189Z" fill="black"/>
<path d="M79.9214 84.3496H75.4961V88.7749H79.9214V84.3496Z" fill="black"/>
<path d="M79.9214 88.7754H75.4961V93.2007H79.9214V88.7754Z" fill="black"/>
<path d="M79.9214 93.2002H75.4961V97.6255H79.9214V93.2002Z" fill="black"/>
<path d="M79.9214 106.482H75.4961V110.908H79.9214V106.482Z" fill="black"/>
<path d="M79.9214 110.913H75.4961V115.338H79.9214V110.913Z" fill="black"/>
<path d="M84.3433 44.5049H79.918V48.9302H84.3433V44.5049Z" fill="black"/>
<path d="M84.3433 53.3613H79.918V57.7866H84.3433V53.3613Z" fill="black"/>
<path d="M84.3433 62.2119H79.918V66.6373H84.3433V62.2119Z" fill="black"/>
<path d="M84.3433 71.0684H79.918V75.4937H84.3433V71.0684Z" fill="black"/>
<path d="M84.3433 75.4932H79.918V79.9185H84.3433V75.4932Z" fill="black"/>
<path d="M84.3433 93.2002H79.918V97.6255H84.3433V93.2002Z" fill="black"/>
<path d="M84.3433 106.482H79.918V110.908H84.3433V106.482Z" fill="black"/>
<path d="M84.3433 110.913H79.918V115.338H84.3433V110.913Z" fill="black"/>
<path d="M88.7769 4.65918H84.3516V9.0845H88.7769V4.65918Z" fill="black"/>
<path d="M88.7769 9.08496H84.3516V13.5103H88.7769V9.08496Z" fill="black"/>
<path d="M88.7769 13.5156H84.3516V17.9409H88.7769V13.5156Z" fill="black"/>
<path d="M88.7769 17.9414H84.3516V22.3667H88.7769V17.9414Z" fill="black"/>
<path d="M88.7769 22.3662H84.3516V26.7915H88.7769V22.3662Z" fill="black"/>
<path d="M88.7769 26.7979H84.3516V31.2232H88.7769V26.7979Z" fill="black"/>
<path d="M88.7769 31.2227H84.3516V35.648H88.7769V31.2227Z" fill="black"/>
<path d="M88.7769 40.0791H84.3516V44.5044H88.7769V40.0791Z" fill="black"/>
<path d="M88.7769 44.5049H84.3516V48.9302H88.7769V44.5049Z" fill="black"/>
<path d="M88.7769 48.9297H84.3516V53.355H88.7769V48.9297Z" fill="black"/>
<path d="M88.7769 57.7861H84.3516V62.2115H88.7769V57.7861Z" fill="black"/>
<path d="M88.7769 62.2119H84.3516V66.6373H88.7769V62.2119Z" fill="black"/>
<path d="M88.7769 71.0684H84.3516V75.4937H88.7769V71.0684Z" fill="black"/>
<path d="M88.7769 75.4932H84.3516V79.9185H88.7769V75.4932Z" fill="black"/>
<path d="M88.7769 84.3496H84.3516V88.7749H88.7769V84.3496Z" fill="black"/>
<path d="M88.7769 93.2002H84.3516V97.6255H88.7769V93.2002Z" fill="black"/>
<path d="M88.7769 106.482H84.3516V110.908H88.7769V106.482Z" fill="black"/>
<path d="M88.7769 110.913H84.3516V115.338H88.7769V110.913Z" fill="black"/>
<path d="M93.2027 4.65918H88.7773V9.0845H93.2027V4.65918Z" fill="black"/>
<path d="M93.2027 31.2227H88.7773V35.648H93.2027V31.2227Z" fill="black"/>
<path d="M93.2027 40.0791H88.7773V44.5044H93.2027V40.0791Z" fill="black"/>
<path d="M93.2027 57.7861H88.7773V62.2115H93.2027V57.7861Z" fill="black"/>
<path d="M93.2027 62.2119H88.7773V66.6373H93.2027V62.2119Z" fill="black"/>
<path d="M93.2027 66.6367H88.7773V71.062H93.2027V66.6367Z" fill="black"/>
<path d="M93.2027 75.4932H88.7773V79.9185H93.2027V75.4932Z" fill="black"/>
<path d="M93.2027 93.2002H88.7773V97.6255H93.2027V93.2002Z" fill="black"/>
<path d="M93.2027 97.6318H88.7773V102.057H93.2027V97.6318Z" fill="black"/>
<path d="M93.2027 102.057H88.7773V106.482H93.2027V102.057Z" fill="black"/>
<path d="M93.2027 110.913H88.7773V115.338H93.2027V110.913Z" fill="black"/>
<path d="M97.6284 4.65918H93.2031V9.0845H97.6284V4.65918Z" fill="black"/>
<path d="M97.6284 13.5156H93.2031V17.9409H97.6284V13.5156Z" fill="black"/>
<path d="M97.6284 17.9414H93.2031V22.3667H97.6284V17.9414Z" fill="black"/>
<path d="M97.6284 22.3662H93.2031V26.7915H97.6284V22.3662Z" fill="black"/>
<path d="M97.6284 31.2227H93.2031V35.648H97.6284V31.2227Z" fill="black"/>
<path d="M97.6284 40.0791H93.2031V44.5044H97.6284V40.0791Z" fill="black"/>
<path d="M97.6284 53.3613H93.2031V57.7866H97.6284V53.3613Z" fill="black"/>
<path d="M97.6284 66.6367H93.2031V71.062H97.6284V66.6367Z" fill="black"/>
<path d="M97.6284 71.0684H93.2031V75.4937H97.6284V71.0684Z" fill="black"/>
<path d="M97.6284 75.4932H93.2031V79.9185H97.6284V75.4932Z" fill="black"/>
<path d="M97.6284 79.9189H93.2031V84.3443H97.6284V79.9189Z" fill="black"/>
<path d="M97.6284 84.3496H93.2031V88.7749H97.6284V84.3496Z" fill="black"/>
<path d="M97.6284 88.7754H93.2031V93.2007H97.6284V88.7754Z" fill="black"/>
<path d="M97.6284 93.2002H93.2031V97.6255H97.6284V93.2002Z" fill="black"/>
<path d="M97.6284 97.6318H93.2031V102.057H97.6284V97.6318Z" fill="black"/>
<path d="M97.6284 102.057H93.2031V106.482H97.6284V102.057Z" fill="black"/>
<path d="M102.058 4.65918H97.6328V9.0845H102.058V4.65918Z" fill="black"/>
<path d="M102.058 13.5156H97.6328V17.9409H102.058V13.5156Z" fill="black"/>
<path d="M102.058 17.9414H97.6328V22.3667H102.058V17.9414Z" fill="black"/>
<path d="M102.058 22.3662H97.6328V26.7915H102.058V22.3662Z" fill="black"/>
<path d="M102.058 31.2227H97.6328V35.648H102.058V31.2227Z" fill="black"/>
<path d="M102.058 57.7861H97.6328V62.2115H102.058V57.7861Z" fill="black"/>
<path d="M102.058 62.2119H97.6328V66.6373H102.058V62.2119Z" fill="black"/>
<path d="M102.058 75.4932H97.6328V79.9185H102.058V75.4932Z" fill="black"/>
<path d="M102.058 79.9189H97.6328V84.3443H102.058V79.9189Z" fill="black"/>
<path d="M102.058 84.3496H97.6328V88.7749H102.058V84.3496Z" fill="black"/>
<path d="M102.058 88.7754H97.6328V93.2007H102.058V88.7754Z" fill="black"/>
<path d="M102.058 93.2002H97.6328V97.6255H102.058V93.2002Z" fill="black"/>
<path d="M102.058 97.6318H97.6328V102.057H102.058V97.6318Z" fill="black"/>
<path d="M102.058 106.482H97.6328V110.908H102.058V106.482Z" fill="black"/>
<path d="M106.484 4.65918H102.059V9.0845H106.484V4.65918Z" fill="black"/>
<path d="M106.484 13.5156H102.059V17.9409H106.484V13.5156Z" fill="black"/>
<path d="M106.484 17.9414H102.059V22.3667H106.484V17.9414Z" fill="black"/>
<path d="M106.484 22.3662H102.059V26.7915H106.484V22.3662Z" fill="black"/>
<path d="M106.484 31.2227H102.059V35.648H106.484V31.2227Z" fill="black"/>
<path d="M106.484 40.0791H102.059V44.5044H106.484V40.0791Z" fill="black"/>
<path d="M106.484 62.2119H102.059V66.6373H106.484V62.2119Z" fill="black"/>
<path d="M106.484 66.6367H102.059V71.062H106.484V66.6367Z" fill="black"/>
<path d="M106.484 75.4932H102.059V79.9185H106.484V75.4932Z" fill="black"/>
<path d="M106.484 88.7754H102.059V93.2007H106.484V88.7754Z" fill="black"/>
<path d="M106.484 97.6318H102.059V102.057H106.484V97.6318Z" fill="black"/>
<path d="M106.484 102.057H102.059V106.482H106.484V102.057Z" fill="black"/>
<path d="M110.91 4.65918H106.484V9.0845H110.91V4.65918Z" fill="black"/>
<path d="M110.91 31.2227H106.484V35.648H110.91V31.2227Z" fill="black"/>
<path d="M110.91 40.0791H106.484V44.5044H110.91V40.0791Z" fill="black"/>
<path d="M110.91 48.9297H106.484V53.355H110.91V48.9297Z" fill="black"/>
<path d="M110.91 57.7861H106.484V62.2115H110.91V57.7861Z" fill="black"/>
<path d="M110.91 71.0684H106.484V75.4937H110.91V71.0684Z" fill="black"/>
<path d="M110.91 84.3496H106.484V88.7749H110.91V84.3496Z" fill="black"/>
<path d="M110.91 93.2002H106.484V97.6255H110.91V93.2002Z" fill="black"/>
<path d="M110.91 110.913H106.484V115.338H110.91V110.913Z" fill="black"/>
<path d="M115.339 4.65918H110.914V9.0845H115.339V4.65918Z" fill="black"/>
<path d="M115.339 9.08496H110.914V13.5103H115.339V9.08496Z" fill="black"/>
<path d="M115.339 13.5156H110.914V17.9409H115.339V13.5156Z" fill="black"/>
<path d="M115.339 17.9414H110.914V22.3667H115.339V17.9414Z" fill="black"/>
<path d="M115.339 22.3662H110.914V26.7915H115.339V22.3662Z" fill="black"/>
<path d="M115.339 26.7979H110.914V31.2232H115.339V26.7979Z" fill="black"/>
<path d="M115.339 31.2227H110.914V35.648H115.339V31.2227Z" fill="black"/>
<path d="M115.339 44.5049H110.914V48.9302H115.339V44.5049Z" fill="black"/>
<path d="M115.339 48.9297H110.914V53.355H115.339V48.9297Z" fill="black"/>
<path d="M115.339 57.7861H110.914V62.2115H115.339V57.7861Z" fill="black"/>
<path d="M115.339 62.2119H110.914V66.6373H115.339V62.2119Z" fill="black"/>
<path d="M115.339 66.6367H110.914V71.062H115.339V66.6367Z" fill="black"/>
<path d="M115.339 79.9189H110.914V84.3443H115.339V79.9189Z" fill="black"/>
<path d="M115.339 84.3496H110.914V88.7749H115.339V84.3496Z" fill="black"/>
<path d="M115.339 88.7754H110.914V93.2007H115.339V88.7754Z" fill="black"/>
<path d="M115.339 102.057H110.914V106.482H115.339V102.057Z" fill="black"/>
<path d="M115.339 110.913H110.914V115.338H115.339V110.913Z" fill="black"/>
</g>
<defs>
<clipPath id="clip0_1155_493">
<rect width="110.68" height="110.68" fill="white" transform="translate(4.66016 4.65918)"/>
</clipPath>
</defs>
</svg>
