<svg width="24" height="24" viewBox="0 0 24 24" fill="none" xmlns="http://www.w3.org/2000/svg">
<path d="M7.91731 10.9379C8.13946 11.0082 8.42826 11.0559 8.78371 11.081V12H9.55384V11.0584C10.0179 10.9881 10.3511 10.8324 10.5535 10.5913C10.7559 10.3503 10.8571 10.064 10.8571 9.73258C10.8571 9.51161 10.8176 9.32078 10.7387 9.16008C10.6646 8.99937 10.5609 8.86127 10.4276 8.74576C10.2944 8.62524 10.1364 8.52229 9.95372 8.43691C9.776 8.34652 9.58593 8.26114 9.38352 8.18079C9.24036 8.13057 9.112 8.08286 8.99846 8.03767C8.88491 7.98745 8.78865 7.93723 8.70966 7.88701C8.63067 7.83176 8.57143 7.7715 8.53193 7.70622C8.49244 7.63591 8.47269 7.55053 8.47269 7.45009C8.47269 7.27935 8.53934 7.14627 8.67263 7.05085C8.80592 6.95041 9.00586 6.90019 9.27245 6.90019C9.52422 6.90019 9.74638 6.9253 9.93891 6.97552C10.1364 7.02574 10.3067 7.07847 10.4499 7.13371L10.635 6.38795C10.5264 6.34275 10.3783 6.29755 10.1907 6.25235C10.0031 6.20213 9.79081 6.16698 9.55384 6.14689V5.33333H8.78371V6.17702C8.36409 6.24733 8.05307 6.40552 7.85066 6.6516C7.64826 6.89266 7.54705 7.18644 7.54705 7.53296C7.54705 7.74388 7.58408 7.92216 7.65813 8.0678C7.73218 8.21343 7.82845 8.33898 7.94693 8.44445C8.07035 8.54488 8.20611 8.63026 8.35421 8.70057C8.50725 8.77087 8.66029 8.83365 8.81333 8.88889C8.97624 8.94915 9.12434 9.00691 9.25764 9.06215C9.39587 9.11739 9.51435 9.17765 9.61308 9.24294C9.71182 9.30822 9.78834 9.38355 9.84264 9.46893C9.89695 9.5543 9.9241 9.65474 9.9241 9.77025C9.9241 9.94099 9.85745 10.0791 9.72416 10.1846C9.5958 10.285 9.36131 10.3352 9.02067 10.3352C8.73434 10.3352 8.47763 10.3026 8.25054 10.2373C8.02839 10.172 7.83832 10.0992 7.68035 10.0188L7.42857 10.7345C7.53718 10.7947 7.70009 10.8625 7.91731 10.9379Z" fill="white"/>
<path d="M12 6.44444C12 6.13762 12.2558 5.88889 12.5714 5.88889H16C16.3156 5.88889 16.5714 6.13762 16.5714 6.44444C16.5714 6.75127 16.3156 7 16 7H12.5714C12.2558 7 12 6.75127 12 6.44444Z" fill="white"/>
<path d="M12 8.66667C12 8.35984 12.2558 8.11111 12.5714 8.11111H16C16.3156 8.11111 16.5714 8.35984 16.5714 8.66667C16.5714 8.97349 16.3156 9.22222 16 9.22222H12.5714C12.2558 9.22222 12 8.97349 12 8.66667Z" fill="white"/>
<path d="M12 10.8889C12 10.5821 12.2558 10.3333 12.5714 10.3333H16C16.3156 10.3333 16.5714 10.5821 16.5714 10.8889C16.5714 11.1957 16.3156 11.4444 16 11.4444H12.5714C12.2558 11.4444 12 11.1957 12 10.8889Z" fill="white"/>
<path d="M7.42857 13.6667C7.42857 13.3598 7.68441 13.1111 8 13.1111H16C16.3156 13.1111 16.5714 13.3598 16.5714 13.6667C16.5714 13.9735 16.3156 14.2222 16 14.2222H8C7.68441 14.2222 7.42857 13.9735 7.42857 13.6667Z" fill="white"/>
<path d="M7.42857 15.8889C7.42857 15.5821 7.68441 15.3333 8 15.3333H16C16.3156 15.3333 16.5714 15.5821 16.5714 15.8889C16.5714 16.1957 16.3156 16.4444 16 16.4444H8C7.68441 16.4444 7.42857 16.1957 7.42857 15.8889Z" fill="white"/>
<path d="M7.42857 18.1111C7.42857 17.8043 7.68441 17.5556 8 17.5556H16C16.3156 17.5556 16.5714 17.8043 16.5714 18.1111C16.5714 18.4179 16.3156 18.6667 16 18.6667H8C7.68441 18.6667 7.42857 18.4179 7.42857 18.1111Z" fill="white"/>
<path fill-rule="evenodd" clip-rule="evenodd" d="M4 4.22222C4 2.99492 5.02335 2 6.28571 2H17.7143C18.9767 2 20 2.99492 20 4.22222V19.7778C20 21.0051 18.9767 22 17.7143 22H6.28571C5.02335 22 4 21.0051 4 19.7778V4.22222ZM6.28571 3.66667H17.7143C18.0299 3.66667 18.2857 3.9154 18.2857 4.22222V19.7778C18.2857 20.0846 18.0299 20.3333 17.7143 20.3333H6.28571C5.97012 20.3333 5.71429 20.0846 5.71429 19.7778V4.22222C5.71429 3.9154 5.97012 3.66667 6.28571 3.66667Z" fill="white"/>
</svg>
