<svg width="100" height="100" viewBox="0 0 100 100" fill="none" xmlns="http://www.w3.org/2000/svg">
<path d="M25.1 57.8947C14.05 57.8947 5.1 67.3158 5.1 78.9474C5.1 90.5789 14.05 100 25.1 100C36.15 100 45.1 90.5789 45.1 78.9474C45.1 67.3158 36.15 57.8947 25.1 57.8947ZM55 57.8947V100H95V57.8947H55ZM25 0L0 47.3684H50L25 0ZM86.25 2.63158C80.95 2.63158 77.2 5.57895 75 8.78947C72.8 5.57895 69.05 2.63158 63.75 2.63158C55.95 2.63158 50 9.36842 50 17.1053C50 27.6316 62.1 35.1053 75 47.3684C87.9 35.1053 100 27.6316 100 17.1053C100 9.36842 94.05 2.63158 86.25 2.63158Z" fill="#505050"/>
</svg>
