<svg width="32" height="32" viewBox="0 0 32 32" fill="none" xmlns="http://www.w3.org/2000/svg">
<path d="M23.3749 16.8901C23.3883 15.8169 23.6636 14.7646 24.1753 13.8312C24.6869 12.8977 25.4183 12.1135 26.3013 11.5513C25.7403 10.7218 25.0003 10.0391 24.1399 9.5575C23.2796 9.0759 22.3226 8.80867 21.3451 8.77696C19.2599 8.55033 17.2384 10.069 16.1758 10.069C15.0926 10.069 13.4566 8.79953 11.6948 8.837C10.5552 8.87513 9.4447 9.21829 8.47128 9.83297C7.49786 10.4476 6.69486 11.3129 6.14046 12.3445C3.73884 16.65 5.53019 22.9775 7.83076 26.4577C8.98176 28.1619 10.3269 30.0654 12.0871 29.9979C13.8095 29.9239 14.4528 28.8606 16.5319 28.8606C18.5918 28.8606 19.1953 29.9979 20.9911 29.955C22.8393 29.924 24.0038 28.2433 25.1144 26.523C25.9415 25.3088 26.5778 23.9667 27 22.5466C25.9262 22.0764 25.0099 21.2892 24.3653 20.2833C23.7206 19.2775 23.3762 18.0973 23.3749 16.8901Z" fill="white"/>
<path d="M19.9846 6.48828C20.9924 5.2357 21.4888 3.62563 21.3686 2C19.829 2.1675 18.4069 2.92943 17.3855 4.13399C16.8861 4.72248 16.5036 5.40708 16.26 6.14866C16.0163 6.89032 15.9162 7.6744 15.9653 8.45609C16.7354 8.46432 17.4972 8.29146 18.1934 7.95061C18.8896 7.60975 19.5021 7.10979 19.9846 6.48828Z" fill="white"/>
</svg>
