<svg width="112" height="96" viewBox="0 0 112 96" fill="none" xmlns="http://www.w3.org/2000/svg">
<path fill-rule="evenodd" clip-rule="evenodd" d="M72.5395 82.5766L75.3609 63.8481H75.521L78.3427 82.5766H72.5395ZM86.2029 94.6413L79.9144 56.6926C79.8223 56.1372 79.3633 55.7317 78.8267 55.7317H72.0573C71.5207 55.7317 71.0615 56.1372 70.9697 56.6926L64.6812 94.6413C64.5635 95.3507 65.0833 96 65.7689 96H69.5432C70.0855 96 70.5477 95.5862 70.6333 95.0234L71.6142 88.5851H79.2699L80.2508 95.0234C80.3363 95.5862 80.7985 96 81.3409 96H85.1152C85.8007 96 86.3205 95.3507 86.2029 94.6413Z" fill="#505050"/>
<path fill-rule="evenodd" clip-rule="evenodd" d="M27.2748 82.5766L30.0962 63.8481H30.2563L33.078 82.5766H27.2748ZM40.9381 94.6413L34.6497 56.6926C34.5575 56.1372 34.0986 55.7317 33.562 55.7317H26.7926C26.256 55.7317 25.7968 56.1372 25.7049 56.6926L19.4165 94.6413C19.2988 95.3507 19.8186 96 20.5041 96H24.2785C24.8208 96 25.283 95.5862 25.3686 95.0234L26.3494 88.5851H34.0052L34.986 95.0234C35.0716 95.5862 35.5338 96 36.0761 96H39.8505C40.536 96 41.0558 95.3507 40.9381 94.6413Z" fill="#505050"/>
<path fill-rule="evenodd" clip-rule="evenodd" d="M12.5524 69.4769C12.5524 72.8864 11.7741 73.7532 9.33739 73.7532H6.89881V61.4675H9.33739C11.7741 61.4675 12.5524 62.4416 12.5524 65.6893V69.4769ZM19.3995 64.3372C19.3995 57.8966 16.6508 55.7317 11.048 55.7317H1.08336C0.484926 55.7317 0 56.2379 0 56.8624V94.8696C0 95.494 0.484926 96 1.08336 96H5.81556C6.41399 96 6.89891 95.494 6.89891 94.8696V79.7632H11.048C16.4943 79.7632 19.3995 77.0572 19.3995 70.9399V64.3372Z" fill="#505050"/>
<path fill-rule="evenodd" clip-rule="evenodd" d="M8.89991 51.2001H9.99467C16.5572 51.2001 19.2419 46.9872 19.2419 41.6677V40.5607C19.2419 35.874 17.7498 33.5571 14.4691 30.3436L9.69608 25.7083C7.70763 23.7596 6.96127 22.6541 6.96127 20.3357V19.9678C6.96127 17.7025 7.85627 16.8074 9.79465 16.8074C11.5844 16.8074 12.4807 17.7555 12.4807 20.1252V22.8185C12.4807 23.4258 12.9455 23.9185 13.5191 23.9185H17.8061C18.3795 23.9185 18.8445 23.4258 18.8445 22.8185V18.7564C18.8445 13.6473 15.7112 11.1726 10.2922 11.1726H9.24858C3.332 11.1726 0.248785 13.9106 0.248785 19.8619V20.9686C0.248785 25.2876 1.83981 27.8678 4.77306 30.6602L9.5962 35.2425C11.5844 37.1384 12.3806 38.4542 12.3806 41.0348V41.4571C12.3806 43.9846 11.3857 45.2488 9.44729 45.2488C7.50761 45.2488 6.46397 44.1951 6.46397 42.0356V37.7644C6.46397 37.1571 5.99916 36.6644 5.42557 36.6644H1.03866C0.465064 36.6644 0 37.1571 0 37.7644V43.3C0 48.3564 3.08347 51.2001 8.89991 51.2001Z" fill="#505050"/>
<path fill-rule="evenodd" clip-rule="evenodd" d="M24.7819 51.2568H39.8834C40.4751 51.2568 40.9548 50.7508 40.9548 50.1264V45.9466C40.9548 45.3222 40.4751 44.8159 39.8834 44.8159H30.3782V33.6661H37.8841C38.4757 33.6661 38.9551 33.1602 38.9551 32.5357V28.356C38.9551 27.7315 38.4757 27.2253 37.8841 27.2253H30.3782V17.2661H39.8834C40.4751 17.2661 40.9548 16.7601 40.9548 16.1357V12.1192C40.9548 11.4948 40.4751 10.9885 39.8834 10.9885H24.7819C24.1902 10.9885 23.7108 11.4948 23.7108 12.1192V50.1264C23.7108 50.7508 24.1902 51.2568 24.7819 51.2568Z" fill="#505050"/>
<path fill-rule="evenodd" clip-rule="evenodd" d="M59.9914 11.9382L56.0429 35.3554L52.0947 11.9382C52.0019 11.388 51.5622 10.9885 51.0499 10.9885H44.1721C43.5855 10.9885 43.11 11.5079 43.11 12.1483V50.097C43.11 50.7377 43.5855 51.2568 44.1721 51.2568H47.6446C48.2333 51.2568 48.7095 50.7351 48.7069 50.0924C48.6847 44.9577 48.5979 24.4202 48.5979 20.5983H48.7461C49.1748 23.3414 53.1306 45.4746 53.9977 50.3213C54.0952 50.8655 54.5317 51.2568 55.0399 51.2568H57.0459C57.5541 51.2568 57.9909 50.8655 58.0881 50.3213C58.9552 45.4746 62.9112 23.3414 63.3399 20.5983H63.4879C63.4879 24.6242 63.4014 44.984 63.3792 50.0927C63.3765 50.7354 63.8528 51.2568 64.4412 51.2568H67.9137C68.5003 51.2568 68.976 50.7377 68.976 50.097V12.1483C68.976 11.5079 68.5003 10.9885 67.9137 10.9885H61.0362C60.5236 10.9885 60.0842 11.388 59.9914 11.9382Z" fill="#505050"/>
<path fill-rule="evenodd" clip-rule="evenodd" d="M55.787 69.9999C55.787 72.5972 54.9652 74.0039 52.656 74.0039H49.8333V61.1432H52.656C54.9652 61.1432 55.787 62.1717 55.787 64.9323V69.9999ZM55.1197 55.7317H44.1822C43.5901 55.7317 43.11 56.2379 43.11 56.8621V94.8696C43.11 95.494 43.5901 96 44.1822 96H48.7609C49.353 96 49.8331 95.494 49.8331 94.8696V79.7424H52.6558C54.9146 79.7424 55.7868 80.9327 55.7868 83.6933V94.8696C55.7868 95.494 56.2666 96 56.8587 96H61.4374C62.0295 96 62.5095 95.494 62.5095 94.8696V82.5029C62.5095 78.3899 60.6621 76.6579 58.6612 75.8454C60.4053 75.304 62.5095 73.572 62.5095 69.3503V63.3632C62.5095 58.0051 60.0467 55.7317 55.1197 55.7317Z" fill="#505050"/>
<path fill-rule="evenodd" clip-rule="evenodd" d="M101.053 69.9999C101.053 72.5972 100.231 74.0039 97.9219 74.0039H95.0991V61.1432H97.9219C100.231 61.1432 101.053 62.1717 101.053 64.9323V69.9999ZM107.775 69.3503V63.3632C107.775 58.0051 105.312 55.7317 100.385 55.7317H89.4475C88.8554 55.7317 88.3753 56.2379 88.3753 56.8621V94.8696C88.3753 95.494 88.8554 96 89.4475 96H94.0262C94.6183 96 95.0984 95.494 95.0984 94.8696V79.7424H97.9211C100.18 79.7424 101.052 80.9327 101.052 83.6933V94.8696C101.052 95.494 101.532 96 102.124 96H106.703C107.295 96 107.775 95.494 107.775 94.8696V82.5029C107.775 78.3899 105.927 76.6579 103.926 75.8454C105.671 75.304 107.775 73.572 107.775 69.3503Z" fill="#505050"/>
<path fill-rule="evenodd" clip-rule="evenodd" d="M111.142 17.4929L94.843 0.874925C93.6989 -0.291642 91.8439 -0.291642 90.6994 0.874925L74.4006 17.4929C73.2564 18.6595 73.2564 20.5511 74.4006 21.7177L77.4321 24.8085C78.5762 25.9751 80.4315 25.9751 81.5757 24.8085L87.4834 18.7851C87.5624 18.7043 87.6978 18.7615 87.6978 18.8758V48.8541C87.6978 50.8132 90.0211 51.7944 91.3802 50.409L95.1108 46.605C96.8614 44.8205 97.8447 42.3997 97.8447 39.8756V18.8758C97.8447 18.7615 97.9801 18.7043 98.0593 18.7851L103.967 24.8085C105.111 25.9751 106.966 25.9751 108.11 24.8085L111.142 21.7177C112.286 20.5511 112.286 18.6595 111.142 17.4929Z" fill="#D60B52"/>
</svg>
